<svg width="26" height="26" viewBox="0 0 26 26" fill="none" xmlns="http://www.w3.org/2000/svg">
<path d="M10.9944 19.1987C11.3175 19.0722 11.606 18.8882 11.8944 18.6812L14.1674 16.8646C17.8943 13.8865 22.348 7.88452 24.1249 3.46926C24.4018 2.80237 24.1941 2.14698 23.7557 1.72155C23.3403 1.29612 22.6826 1.11215 22.0019 1.36511C17.5827 3.12432 11.5367 7.58557 8.55991 11.2995L6.75995 13.5646C6.51765 13.8406 6.3215 14.174 6.19458 14.5304C6.42535 14.5074 6.65611 14.5304 6.88687 14.5419C7.86762 14.6684 8.82529 15.1283 9.60989 15.9102C10.3829 16.6806 10.8214 17.5774 10.9483 18.5433C10.9829 18.7617 10.9944 18.9917 10.9944 19.1987ZM10.9944 19.1987C10.9944 20.4635 10.5096 21.6706 9.59808 22.5905C8.89425 23.2919 7.93658 23.7748 6.7943 23.9243L3.95591 24.2347C2.40979 24.4072 1.0829 23.0964 1.26751 21.5327L1.57904 18.7041C1.85596 16.186 3.96745 14.5763 6.20586 14.5303C6.43662 14.5188 6.67892 14.5303 6.89815 14.5418C7.87889 14.6683 8.83656 15.1167 9.62116 15.9101C10.3942 16.6805 10.8327 17.5773 10.9596 18.5432C10.9711 18.7616 10.9944 18.9802 10.9944 19.1987ZM15.3908 15.5771C15.3908 12.5761 12.9447 10.1385 9.93323 10.1385" stroke="#FF7B00" stroke-width="2.5" stroke-linejoin="round"/>
</svg>
