<svg width="25" height="25" viewBox="0 0 25 25" fill="none" xmlns="http://www.w3.org/2000/svg">
<path d="M15.0934 17.0659L16.7189 15.4396C16.9691 15.1864 17.267 14.9852 17.5952 14.848C17.9236 14.7108 18.2759 14.6402 18.6316 14.6402C18.9875 14.6402 19.3398 14.7108 19.6682 14.848C19.9964 14.9852 20.2943 15.1864 20.5443 15.4396L22.4509 17.3471C22.7041 17.5973 22.9051 17.895 23.0422 18.2235C23.1794 18.5519 23.25 18.9045 23.25 19.2605C23.25 19.6165 23.1794 19.969 23.0422 20.2975C22.9051 20.6259 22.7041 20.9236 22.4509 21.1738L21.5832 22.0541C20.9853 22.6581 20.212 23.0579 19.3736 23.1962C18.5352 23.3345 17.6746 23.2045 16.9145 22.8245C10.3738 19.4562 5.04629 14.1308 1.674 7.5902C1.29382 6.829 1.16473 5.96678 1.30528 5.12756C1.44583 4.28832 1.84878 3.5152 2.45621 2.91953L3.32391 2.03924C3.83225 1.53377 4.51988 1.25 5.23661 1.25C5.95335 1.25 6.64098 1.53377 7.14932 2.03924L9.06815 3.95891C9.57342 4.46746 9.85704 5.15529 9.85704 5.87232C9.85704 6.58934 9.57342 7.27716 9.06815 7.78572L7.44263 9.41196C8.51742 10.8664 9.698 12.2393 10.9747 13.5199C12.2441 14.792 13.6087 15.9652 15.0568 17.0292L15.0934 17.0659Z" stroke="#EA00FF" stroke-width="2.5" stroke-linecap="round" stroke-linejoin="round"/>
</svg>
