<svg width="23" height="25" viewBox="0 0 23 25" fill="none" xmlns="http://www.w3.org/2000/svg">
<path d="M11.35 0.175171C12.9709 0.175172 14.1564 0.994902 14.9604 2.04333C15.7371 3.05627 16.2083 4.33427 16.5053 5.49646L16.5375 5.62927H18.186C20.0362 5.62931 21.5751 7.0338 21.6987 8.84802L22.517 20.848C22.6527 22.842 21.0361 24.5248 19.0034 24.5248H3.69672C1.66401 24.5248 0.0473886 22.842 0.183044 20.848L1.0014 8.84802C1.12506 7.03381 2.66383 5.6293 4.5141 5.62927H6.16156C6.17244 5.5851 6.18345 5.54071 6.19476 5.49646C6.49183 4.33426 6.96298 3.05625 7.73969 2.04333C8.54368 0.994904 9.72919 0.175171 11.35 0.175171ZM4.5141 8.1615C4.01566 8.16153 3.6082 8.53901 3.57562 9.01697L2.75824 21.017C2.72271 21.5414 3.14892 21.9935 3.69672 21.9935H19.0034C19.5512 21.9935 19.9774 21.5414 19.9418 21.017L19.1245 9.01697C19.0919 8.53903 18.6845 8.16153 18.186 8.1615H16.9731C16.9937 8.35078 17.0135 8.53035 17.0278 8.69861L17.0698 9.28943C17.0802 9.46556 17.0876 9.61966 17.0922 9.74744C17.097 9.87541 17.0998 9.97785 17.101 10.0492C17.1017 10.088 17.1019 10.1272 17.102 10.1664H16.9272L17.102 10.1674V10.1722C17.1019 10.1753 17.1012 10.1799 17.101 10.1849C17.1007 10.195 17.1003 10.2088 17.0991 10.226C17.0965 10.2606 17.0913 10.3091 17.0815 10.3666C17.0621 10.4807 17.0229 10.6355 16.9428 10.7924C16.8624 10.9498 16.7396 11.1123 16.5522 11.2347C16.3636 11.3578 16.1197 11.434 15.811 11.434C15.5025 11.4339 15.2592 11.3585 15.0707 11.2357C14.8831 11.1134 14.7606 10.9507 14.6801 10.7933C14.6001 10.6368 14.5609 10.4825 14.5414 10.3685C14.5317 10.3111 14.5264 10.2625 14.5239 10.2279C14.5226 10.2108 14.5223 10.1969 14.5219 10.1869C14.5217 10.1818 14.521 10.1772 14.5209 10.1742V10.1693C14.5208 10.1435 14.5204 10.1175 14.52 10.0912C14.519 10.0347 14.5172 9.94882 14.5131 9.83826C14.5051 9.61668 14.4883 9.29635 14.4555 8.91052L14.4145 8.47791C14.4035 8.37509 14.3906 8.26955 14.3774 8.1615H8.32269C8.29005 8.42766 8.26419 8.67919 8.24457 8.90955C8.21167 9.29559 8.19504 9.61656 8.18695 9.83826C8.18291 9.94889 8.18108 10.0348 8.18011 10.0912C8.17968 10.1165 8.1793 10.1421 8.17914 10.1674C8.17632 10.8875 7.62203 11.4337 6.8891 11.434C6.1579 11.434 5.59722 10.8866 5.59808 10.1644V10.1635C5.59821 10.1251 5.59939 10.087 5.60004 10.0492C5.60125 9.97778 5.60318 9.87535 5.60785 9.74744C5.61719 9.4919 5.63552 9.13039 5.6723 8.69861C5.68664 8.53039 5.70637 8.35082 5.72699 8.1615H4.5141ZM11.35 2.70642C10.7394 2.70642 10.2523 2.97872 9.80219 3.5658C9.40162 4.08818 9.08077 4.80821 8.83344 5.62927H13.8666C13.6193 4.80822 13.2985 4.08818 12.8979 3.5658C12.4477 2.97872 11.9606 2.70642 11.35 2.70642Z" fill="#00C925" stroke="#00C925" stroke-width="0.35"/>
</svg>
