<svg width="24" height="26" viewBox="0 0 24 26" fill="none" xmlns="http://www.w3.org/2000/svg">
<path d="M11.792 0.125C15.9978 0.125097 19.9057 2.01351 22.5518 5.30762L22.8037 5.63086L22.833 5.6709C23.2056 6.16788 23.1052 6.87232 22.6084 7.24512L22.4268 7.38086C22.0783 7.64228 21.9759 8.1239 22.1699 8.52344C22.9824 10.1969 23.458 11.9641 23.458 13.8906C23.4578 20.3597 18.2611 25.5565 11.792 25.5566C5.32274 25.5566 0.125254 20.3598 0.125 13.8906C0.125 8.15247 4.32789 3.37216 9.83008 2.35547C10.2791 2.27251 10.617 1.89509 10.6172 1.4502V1.25C10.6172 0.628759 11.121 0.125128 11.7422 0.125H11.792ZM10.6172 5.66895C10.6171 5.14271 10.1616 4.74793 9.66992 4.8623C5.54543 5.82257 2.47363 9.50636 2.47363 13.8906C2.47389 19.0676 6.61497 23.208 11.792 23.208C16.9689 23.2078 21.1091 19.0675 21.1094 13.8906C21.1094 12.6038 20.8602 11.3169 20.3613 10.1279C20.1643 9.65846 19.5697 9.52488 19.1445 9.84375L12.417 14.8887C11.6754 15.4445 10.6172 14.9152 10.6172 13.9883V5.66895ZM13.918 2.64746C13.4205 2.54373 12.9658 2.94056 12.9658 3.46582V9.79199C12.9661 10.5128 13.7895 10.9238 14.3662 10.4912L19.4219 6.7002C19.8435 6.38396 19.8868 5.77884 19.5029 5.44238C17.9109 4.0484 15.9646 3.07466 13.918 2.64746Z" fill="#FF00D4" stroke="#FF00D4" stroke-width="0.25"/>
</svg>
