<svg width="24" height="24" viewBox="0 0 24 24" fill="none" xmlns="http://www.w3.org/2000/svg">
<path d="M17.6402 14.6489C19.967 10.9563 19.5263 6.00853 16.3133 2.79546C12.5865 -0.931821 6.52248 -0.931821 2.79517 2.79546C-0.931722 6.5228 -0.931722 12.5864 2.79517 16.3133C6.00779 19.5263 10.9568 19.9665 14.6489 17.6402L21.0083 24L24 21.0088L17.6402 14.6489ZM13.9005 13.9004C11.5042 16.2976 7.60477 16.2976 5.20801 13.9004C2.81171 11.5041 2.81214 7.60515 5.20843 5.20837C7.60477 2.81206 11.5042 2.81164 13.9005 5.20799C16.2968 7.60515 16.2968 11.5041 13.9005 13.9004Z" fill="#FFC800"/>
</svg>
