<svg width="22" height="24" viewBox="0 0 22 24" fill="none" xmlns="http://www.w3.org/2000/svg">
<path d="M10.2389 22.2591C10.4826 22.3852 10.6046 22.4483 10.7737 22.4809C10.9055 22.5064 11.0955 22.5064 11.2273 22.4809C11.3964 22.4483 11.5184 22.3852 11.7622 22.2591C14.0168 21.0934 20.5005 17.2836 20.5005 12.0263V7.56877C20.5005 6.62654 20.5005 6.15544 20.3452 5.75047C20.208 5.39273 19.9851 5.07351 19.6957 4.82043C19.3682 4.53395 18.9238 4.36854 18.0348 4.0377L11.6677 1.66814C11.4208 1.57627 11.2974 1.53033 11.1703 1.51211C11.0578 1.49596 10.9433 1.49596 10.8307 1.51211C10.7036 1.53033 10.5803 1.57627 10.3334 1.66814L3.96624 4.0377C3.07728 4.36854 2.6328 4.53395 2.30524 4.82043C2.01587 5.07351 1.79296 5.39273 1.6558 5.75047C1.50052 6.15544 1.50052 6.62654 1.50052 7.56877V12.0263C1.50052 17.2836 7.98422 21.0934 10.2389 22.2591Z" stroke="#00FFD5" stroke-width="3" stroke-linecap="round" stroke-linejoin="round"/>
</svg>
