<svg width="26" height="24" viewBox="0 0 26 24" fill="none" xmlns="http://www.w3.org/2000/svg">
<path d="M23.9636 0.0999756H1.23634C0.934957 0.0999756 0.645918 0.221136 0.432809 0.436803C0.219699 0.65247 0.0999756 0.944977 0.0999756 1.24998V21.95C0.0999756 22.255 0.219699 22.5475 0.432809 22.7631C0.645918 22.9788 0.934957 23.1 1.23634 23.1H23.9636C24.265 23.1 24.554 22.9788 24.7671 22.7631C24.9803 22.5475 25.1 22.255 25.1 21.95V1.24998C25.1 0.944977 24.9803 0.65247 24.7671 0.436803C24.554 0.221136 24.265 0.0999756 23.9636 0.0999756ZM22.8272 20.8H2.3727V2.39998H22.8272V20.8ZM4.64543 16.2C4.64543 15.895 4.76515 15.6025 4.97826 15.3868C5.19137 15.1711 5.48041 15.05 5.78179 15.05H6.00907C7.94995 15.0552 9.87259 14.6708 11.6657 13.9191C13.4589 13.1675 15.0869 12.0634 16.4557 10.6708L16.675 10.45H14.8727C14.5713 10.45 14.2823 10.3288 14.0692 10.1131C13.8561 9.89748 13.7363 9.60497 13.7363 9.29998C13.7363 8.99498 13.8561 8.70247 14.0692 8.4868C14.2823 8.27114 14.5713 8.14998 14.8727 8.14998H19.4182C19.5672 8.1507 19.7146 8.18077 19.8522 8.23853C20.0599 8.32538 20.2374 8.47257 20.3624 8.6615C20.4874 8.85042 20.5543 9.07261 20.5545 9.29998V13.9C20.5545 14.205 20.4348 14.4975 20.2217 14.7131C20.0086 14.9288 19.7195 15.05 19.4182 15.05C19.1168 15.05 18.8277 14.9288 18.6146 14.7131C18.4015 14.4975 18.2818 14.205 18.2818 13.9V12.0761L18.0636 12.2969C16.4844 13.9041 14.6058 15.1783 12.5366 16.0457C10.4674 16.9131 8.24874 17.3564 6.00907 17.35H5.78179C5.48041 17.35 5.19137 17.2288 4.97826 17.0131C4.76515 16.7975 4.64543 16.505 4.64543 16.2ZM4.97838 9.63693L5.87952 8.72498L4.97838 7.81303C4.86985 7.70694 4.78328 7.58005 4.72372 7.43974C4.66417 7.29944 4.63282 7.14853 4.63151 6.99584C4.6302 6.84314 4.65895 6.69171 4.71609 6.55038C4.77322 6.40905 4.8576 6.28065 4.9643 6.17267C5.071 6.06469 5.19787 5.9793 5.33753 5.92148C5.47718 5.86366 5.62682 5.83456 5.7777 5.83589C5.92859 5.83721 6.0777 5.86894 6.21634 5.92921C6.35499 5.98948 6.48038 6.07709 6.5852 6.18693L7.48634 7.09888L8.38748 6.18693C8.4923 6.07709 8.61769 5.98948 8.75633 5.92921C8.89498 5.86894 9.04409 5.83721 9.19498 5.83589C9.34586 5.83456 9.4955 5.86366 9.63515 5.92148C9.77481 5.9793 9.90168 6.06469 10.0084 6.17267C10.1151 6.28065 10.1995 6.40905 10.2566 6.55038C10.3137 6.69171 10.3425 6.84314 10.3412 6.99584C10.3399 7.14853 10.3085 7.29944 10.249 7.43974C10.1894 7.58005 10.1028 7.70694 9.99429 7.81303L9.09316 8.72498L9.99429 9.63693C10.1028 9.74301 10.1894 9.86991 10.249 10.0102C10.3085 10.1505 10.3399 10.3014 10.3412 10.4541C10.3425 10.6068 10.3137 10.7582 10.2566 10.8996C10.1995 11.0409 10.1151 11.1693 10.0084 11.2773C9.90168 11.3853 9.77481 11.4706 9.63515 11.5285C9.4955 11.5863 9.34586 11.6154 9.19498 11.6141C9.04409 11.6127 8.89498 11.581 8.75633 11.5207C8.61769 11.4605 8.4923 11.3729 8.38748 11.263L7.48634 10.3511L6.5852 11.263C6.37088 11.4725 6.08383 11.5884 5.78588 11.5858C5.48793 11.5832 5.20292 11.4622 4.99223 11.249C4.78154 11.0358 4.66203 10.7474 4.65944 10.4458C4.65685 10.1443 4.77139 9.85382 4.97838 9.63693Z" fill="#A2FF00" stroke="#A2FF00" stroke-width="0.2" stroke-linejoin="round"/>
</svg>
