<svg width="107" height="24" viewBox="0 0 107 24" fill="none" xmlns="http://www.w3.org/2000/svg">
<path d="M2.27492 19.1628L0 6.27957H3.4004L5.22034 17.3668H3.47224L9.65044 6.27957H12.8593L14.7271 17.3668H12.979L19.1093 6.27957H22.6294L15.5173 19.1628H11.8296L10.0815 9.65603H11.183L5.91479 19.1628H2.27492Z" fill="white"/>
<path d="M26.8143 19.3544C25.4733 19.3544 24.3079 19.1149 23.3181 18.636C22.3443 18.1571 21.586 17.4865 21.0432 16.6245C20.5004 15.7624 20.229 14.7487 20.229 13.5833C20.229 12.1465 20.5483 10.8693 21.1868 9.75182C21.8414 8.61835 22.7354 7.72435 23.8689 7.06981C25.0183 6.41527 26.3353 6.088 27.82 6.088C29.0812 6.088 30.1668 6.32747 31.0768 6.8064C31.9867 7.26936 32.6892 7.9239 33.184 8.77001C33.6949 9.60016 33.9503 10.5979 33.9503 11.7633C33.9503 12.0986 33.9264 12.4338 33.8785 12.7691C33.8466 13.1043 33.7987 13.4236 33.7348 13.7269H23.0786L23.4618 11.5478H31.9867L30.4541 12.2183C30.5819 11.4999 30.542 10.9013 30.3344 10.4223C30.1269 9.92743 29.7916 9.55227 29.3287 9.29684C28.8657 9.02544 28.3069 8.88975 27.6524 8.88975C26.8382 8.88975 26.1438 9.0893 25.5691 9.48841C25.0103 9.87155 24.5873 10.4064 24.2999 11.0928C24.0125 11.7793 23.8689 12.5536 23.8689 13.4156C23.8689 14.4054 24.1403 15.1478 24.683 15.6427C25.2418 16.1216 26.0799 16.3611 27.1974 16.3611C27.852 16.3611 28.4826 16.2573 29.0892 16.0498C29.6958 15.8422 30.2147 15.5469 30.6457 15.1637L32.2022 17.6302C31.4519 18.2209 30.6058 18.6599 29.6639 18.9473C28.738 19.2187 27.7881 19.3544 26.8143 19.3544Z" fill="white"/>
<path d="M33.5655 19.1628L37.1096 1.39448H40.8452L39.3366 8.88975L38.3309 12.6494L37.7562 15.954L37.1096 19.1628H33.5655ZM41.8031 19.3544C40.8133 19.3544 39.9433 19.1788 39.1929 18.8276C38.4586 18.4763 37.8839 17.9415 37.4688 17.2231C37.0697 16.4888 36.8701 15.5708 36.8701 14.4693C36.8701 13.3039 37.0138 12.2103 37.3012 11.1886C37.5885 10.1669 38.0116 9.28087 38.5703 8.53055C39.1291 7.76426 39.8076 7.1656 40.6058 6.73456C41.42 6.30352 42.3379 6.088 43.3596 6.088C44.3654 6.088 45.2913 6.31949 46.1374 6.78245C46.9835 7.22945 47.662 7.88399 48.1729 8.74607C48.6837 9.59218 48.9392 10.6299 48.9392 11.8591C48.9392 12.9287 48.7556 13.9265 48.3884 14.8524C48.0212 15.7624 47.5104 16.5526 46.8558 17.2231C46.2172 17.8936 45.4669 18.4205 44.6049 18.8036C43.7428 19.1708 42.8089 19.3544 41.8031 19.3544ZM41.3721 16.2653C42.1224 16.2653 42.7769 16.0897 43.3357 15.7385C43.8944 15.3713 44.3335 14.8764 44.6527 14.2538C44.988 13.6152 45.1556 12.8729 45.1556 12.0267C45.1556 11.1487 44.9002 10.4543 44.3893 9.94339C43.8785 9.43253 43.1521 9.1771 42.2102 9.1771C41.4918 9.1771 40.8452 9.36069 40.2705 9.72787C39.6958 10.0791 39.2488 10.574 38.9295 11.2126C38.6102 11.8352 38.4506 12.5695 38.4506 13.4156C38.4506 14.2937 38.706 14.9881 39.2169 15.499C39.7277 16.0098 40.4461 16.2653 41.3721 16.2653Z" fill="white"/>
<path d="M51.3765 19.1628L49.1016 6.27957H52.502L54.3219 17.3668H52.5738L58.752 6.27957H61.9608L63.8287 17.3668H62.0806L68.2109 6.27957H71.731L64.6189 19.1628H60.9311L59.183 9.65603H60.2846L55.0163 19.1628H51.3765Z" fill="white"/>
<path d="M69.4179 19.1628L71.9802 6.27957H75.6919L73.1296 19.1628H69.4179ZM74.4706 4.48358C73.8161 4.48358 73.2893 4.29999 72.8902 3.93281C72.491 3.54967 72.2915 3.0867 72.2915 2.54392C72.2915 1.90534 72.515 1.37852 72.962 0.963445C73.425 0.532408 74.0236 0.316889 74.758 0.316889C75.4125 0.316889 75.9393 0.500479 76.3384 0.867659C76.7535 1.21887 76.9611 1.65789 76.9611 2.18472C76.9611 2.87119 76.7296 3.42994 76.2666 3.86097C75.8196 4.27605 75.2209 4.48358 74.4706 4.48358Z" fill="white"/>
<path d="M85.2179 6.088C86.3195 6.088 87.2534 6.31949 88.0197 6.78245C88.7859 7.22945 89.3287 7.89197 89.648 8.77001C89.9673 9.64805 89.9992 10.7336 89.7438 12.0267L88.307 19.1628H84.5714L85.9603 12.2662C86.1518 11.3243 86.072 10.5979 85.7208 10.0871C85.3855 9.57621 84.7629 9.32078 83.853 9.32078C82.9111 9.32078 82.1208 9.59218 81.4823 10.135C80.8597 10.6778 80.4286 11.5079 80.1892 12.6254L78.896 19.1628H75.1604L77.7227 6.27957H81.2667L80.5244 9.91945L79.9976 8.81791C80.6202 7.87601 81.3865 7.18954 82.2964 6.75851C83.2224 6.3115 84.1962 6.088 85.2179 6.088Z" fill="white"/>
<path d="M95.8109 24C94.5657 24 93.4162 23.8563 92.3626 23.569C91.3249 23.2816 90.4309 22.8586 89.6806 22.2998L91.4526 19.5938C91.9635 20.0089 92.618 20.3442 93.4162 20.5996C94.2304 20.855 95.0845 20.9827 95.9785 20.9827C97.2716 20.9827 98.2375 20.7034 98.876 20.1446C99.5306 19.5859 99.9696 18.7557 100.193 17.6542L100.648 15.3314L101.51 12.3141L102.085 9.05737L102.612 6.27957H106.18L104.048 17.0076C103.554 19.4821 102.612 21.2621 101.223 22.3477C99.8499 23.4492 98.0459 24 95.8109 24ZM96.3616 18.5402C95.308 18.5402 94.3501 18.3247 93.4881 17.8936C92.626 17.4626 91.9395 16.848 91.4287 16.0498C90.9178 15.2356 90.6624 14.2618 90.6624 13.1283C90.6624 12.1385 90.838 11.2205 91.1892 10.3744C91.5564 9.52832 92.0593 8.78598 92.6978 8.1474C93.3524 7.49287 94.1107 6.98999 94.9727 6.63877C95.8508 6.27159 96.8086 6.088 97.8463 6.088C98.7882 6.088 99.6423 6.26361 100.409 6.61483C101.175 6.96604 101.766 7.53278 102.181 8.31503C102.612 9.09728 102.771 10.1429 102.66 11.452C102.564 12.8729 102.252 14.1181 101.726 15.1877C101.199 16.2413 100.48 17.0635 99.5705 17.6542C98.6765 18.2449 97.6069 18.5402 96.3616 18.5402ZM97.3674 15.475C98.1018 15.475 98.7483 15.3154 99.3071 14.9961C99.8658 14.6768 100.305 14.2378 100.624 13.6791C100.943 13.1043 101.103 12.4498 101.103 11.7154C101.103 10.9332 100.848 10.3186 100.337 9.87155C99.8259 9.40859 99.1155 9.1771 98.2055 9.1771C97.4712 9.1771 96.8166 9.33675 96.2419 9.65603C95.6832 9.97532 95.2362 10.4223 94.9009 10.997C94.5816 11.5558 94.422 12.2023 94.422 12.9367C94.422 13.719 94.6854 14.3416 95.2122 14.8045C95.739 15.2515 96.4574 15.475 97.3674 15.475Z" fill="white"/>
<circle cx="74.5839" cy="2.68809" r="2.68809" fill="url(#paint0_linear_6_3)"/>
<defs>
<linearGradient id="paint0_linear_6_3" x1="74.5839" y1="0" x2="74.5839" y2="5.37619" gradientUnits="userSpaceOnUse">
<stop stop-color="#EA00FF"/>
<stop offset="1" stop-color="#9500FF"/>
</linearGradient>
</defs>
</svg>
