<svg width="74" height="13" viewBox="0 0 74 13" fill="none" xmlns="http://www.w3.org/2000/svg">
<path d="M6.09863 0.59668C6.30689 0.48445 6.55211 0.469492 6.76953 0.553711L6.86035 0.595703V0.59668C7.07564 0.712821 7.17604 0.926301 7.22363 1.0332C7.28233 1.16507 7.34318 1.34055 7.41016 1.5332L8.33398 4.19238L11.1484 4.25C11.3525 4.25416 11.539 4.25736 11.6826 4.27246C11.7847 4.2832 11.9768 4.30697 12.1416 4.42578L12.21 4.48242C12.4055 4.66907 12.4938 4.9421 12.4453 5.20801C12.4014 5.44865 12.2285 5.6102 12.1416 5.68848C12.0343 5.785 11.886 5.89644 11.7236 6.01953L9.47949 7.71973L10.2959 10.415C10.355 10.6103 10.4084 10.7885 10.4385 10.9297C10.4628 11.0441 10.5083 11.2765 10.4023 11.4971C10.2852 11.7406 10.0528 11.9082 9.78516 11.9443C9.54312 11.9768 9.33687 11.8633 9.23535 11.8047C9.11027 11.7325 8.95757 11.6254 8.79004 11.5088L6.47949 9.90137L4.16895 11.5088C4.00141 11.6254 3.84872 11.7325 3.72363 11.8047C3.6222 11.8632 3.41519 11.9769 3.17285 11.9443C2.9054 11.9082 2.67381 11.7405 2.55664 11.4971C2.45062 11.2765 2.4952 11.0442 2.51953 10.9297C2.54956 10.7884 2.60399 10.6104 2.66309 10.415L3.47754 7.71973L1.23535 6.01953H1.23438C1.07201 5.89642 0.923605 5.78499 0.816406 5.68848C0.729427 5.61016 0.556599 5.44869 0.512695 5.20801C0.464199 4.94207 0.553498 4.66905 0.749023 4.48242C0.925947 4.31387 1.16004 4.28469 1.27637 4.27246C1.41993 4.25737 1.60566 4.25416 1.80957 4.25L4.62402 4.19238L5.54883 1.5332C5.61578 1.3406 5.67664 1.16505 5.73535 1.0332C5.783 0.926207 5.8833 0.711773 6.09863 0.595703V0.59668Z" fill="#FFAE00" fill-opacity="0.5" stroke="#FFAE00" stroke-linecap="round" stroke-linejoin="round"/>
<path d="M21.3012 0.59668C21.5095 0.48445 21.7547 0.469492 21.9721 0.553711L22.0629 0.595703V0.59668C22.2782 0.712821 22.3786 0.926301 22.4262 1.0332C22.4849 1.16507 22.5458 1.34055 22.6127 1.5332L23.5366 4.19238L26.351 4.25C26.5551 4.25416 26.7415 4.25736 26.8852 4.27246C26.9873 4.2832 27.1794 4.30697 27.3442 4.42578L27.4125 4.48242C27.608 4.66907 27.6964 4.9421 27.6479 5.20801C27.604 5.44865 27.4311 5.6102 27.3442 5.68848C27.2369 5.785 27.0885 5.89644 26.9262 6.01953L24.6821 7.71973L25.4985 10.415C25.5575 10.6103 25.611 10.7885 25.6411 10.9297C25.6654 11.0441 25.7109 11.2765 25.6049 11.4971C25.4877 11.7406 25.2553 11.9082 24.9877 11.9443C24.7457 11.9768 24.5394 11.8633 24.4379 11.8047C24.3129 11.7325 24.1601 11.6254 23.9926 11.5088L21.6821 9.90137L19.3715 11.5088C19.204 11.6254 19.0513 11.7325 18.9262 11.8047C18.8248 11.8632 18.6178 11.9769 18.3754 11.9443C18.108 11.9082 17.8764 11.7405 17.7592 11.4971C17.6532 11.2765 17.6978 11.0442 17.7221 10.9297C17.7521 10.7884 17.8066 10.6104 17.8657 10.415L18.6801 7.71973L16.4379 6.01953H16.437C16.2746 5.89642 16.1262 5.78499 16.019 5.68848C15.932 5.61016 15.7592 5.44869 15.7153 5.20801C15.6668 4.94207 15.7561 4.66905 15.9516 4.48242C16.1285 4.31387 16.3626 4.28469 16.4789 4.27246C16.6225 4.25737 16.8082 4.25416 17.0121 4.25L19.8266 4.19238L20.7514 1.5332C20.8184 1.3406 20.8792 1.16505 20.9379 1.0332C20.9856 0.926207 21.0859 0.711773 21.3012 0.595703V0.59668Z" fill="#FFAE00" fill-opacity="0.5" stroke="#FFAE00" stroke-linecap="round" stroke-linejoin="round"/>
<path d="M36.5038 0.59668C36.712 0.48445 36.9573 0.469492 37.1747 0.553711L37.2655 0.595703V0.59668C37.4808 0.712821 37.5812 0.926301 37.6288 1.0332C37.6875 1.16507 37.7483 1.34055 37.8153 1.5332L38.7391 4.19238L41.5536 4.25C41.7577 4.25416 41.9441 4.25736 42.0878 4.27246C42.1898 4.2832 42.3819 4.30697 42.5468 4.42578L42.6151 4.48242C42.8106 4.66907 42.899 4.9421 42.8505 5.20801C42.8065 5.44865 42.6337 5.6102 42.5468 5.68848C42.4395 5.785 42.2911 5.89644 42.1288 6.01953L39.8846 7.71973L40.701 10.415C40.7601 10.6103 40.8136 10.7885 40.8436 10.9297C40.868 11.0441 40.9135 11.2765 40.8075 11.4971C40.6903 11.7406 40.4579 11.9082 40.1903 11.9443C39.9483 11.9768 39.742 11.8633 39.6405 11.8047C39.5154 11.7325 39.3627 11.6254 39.1952 11.5088L36.8846 9.90137L34.5741 11.5088C34.4066 11.6254 34.2539 11.7325 34.1288 11.8047C34.0273 11.8632 33.8203 11.9769 33.578 11.9443C33.3106 11.9082 33.079 11.7405 32.9618 11.4971C32.8558 11.2765 32.9004 11.0442 32.9247 10.9297C32.9547 10.7884 33.0091 10.6104 33.0682 10.415L33.8827 7.71973L31.6405 6.01953H31.6395C31.4772 5.89642 31.3288 5.78499 31.2216 5.68848C31.1346 5.61016 30.9618 5.44869 30.9178 5.20801C30.8694 4.94207 30.9586 4.66905 31.1542 4.48242C31.3311 4.31387 31.5652 4.28469 31.6815 4.27246C31.8251 4.25737 32.0108 4.25416 32.2147 4.25L35.0292 4.19238L35.954 1.5332C36.0209 1.3406 36.0818 1.16505 36.1405 1.0332C36.1881 0.926207 36.2884 0.711773 36.5038 0.595703V0.59668Z" fill="#FFAE00" fill-opacity="0.5" stroke="#FFAE00" stroke-linecap="round" stroke-linejoin="round"/>
<path d="M51.7064 0.59668C51.9146 0.48445 52.1598 0.469492 52.3773 0.553711L52.4681 0.595703V0.59668C52.6834 0.712821 52.7838 0.926301 52.8314 1.0332C52.8901 1.16507 52.9509 1.34055 53.0179 1.5332L53.9417 4.19238L56.7562 4.25C56.9602 4.25416 57.1467 4.25736 57.2903 4.27246C57.3924 4.2832 57.5845 4.30697 57.7493 4.42578L57.8177 4.48242C58.0132 4.66907 58.1015 4.9421 58.053 5.20801C58.0091 5.44865 57.8363 5.6102 57.7493 5.68848C57.6421 5.785 57.4937 5.89644 57.3314 6.01953L55.0872 7.71973L55.9036 10.415C55.9627 10.6103 56.0162 10.7885 56.0462 10.9297C56.0705 11.0441 56.1161 11.2765 56.0101 11.4971C55.8929 11.7406 55.6605 11.9082 55.3929 11.9443C55.1508 11.9768 54.9446 11.8633 54.8431 11.8047C54.718 11.7325 54.5653 11.6254 54.3978 11.5088L52.0872 9.90137L49.7767 11.5088C49.6091 11.6254 49.4564 11.7325 49.3314 11.8047C49.2299 11.8632 49.0229 11.9769 48.7806 11.9443C48.5131 11.9082 48.2815 11.7405 48.1644 11.4971C48.0583 11.2765 48.1029 11.0442 48.1273 10.9297C48.1573 10.7884 48.2117 10.6104 48.2708 10.415L49.0853 7.71973L46.8431 6.01953H46.8421C46.6797 5.89642 46.5313 5.78499 46.4241 5.68848C46.3372 5.61016 46.1643 5.44869 46.1204 5.20801C46.0719 4.94207 46.1612 4.66905 46.3568 4.48242C46.5337 4.31387 46.7678 4.28469 46.8841 4.27246C47.0277 4.25737 47.2134 4.25416 47.4173 4.25L50.2318 4.19238L51.1566 1.5332C51.2235 1.3406 51.2844 1.16505 51.3431 1.0332C51.3907 0.926207 51.491 0.711773 51.7064 0.595703V0.59668Z" fill="#FFAE00" fill-opacity="0.5" stroke="#FFAE00" stroke-linecap="round" stroke-linejoin="round"/>
<path d="M66.909 0.59668C67.1173 0.48445 67.3625 0.469492 67.5799 0.553711L67.6707 0.595703V0.59668C67.886 0.712821 67.9864 0.926301 68.034 1.0332C68.0927 1.16507 68.1535 1.34055 68.2205 1.5332L69.1443 4.19238L71.9588 4.25C72.1629 4.25416 72.3493 4.25736 72.493 4.27246C72.5951 4.2832 72.7871 4.30697 72.952 4.42578L73.0203 4.48242C73.2158 4.66907 73.3042 4.9421 73.2557 5.20801C73.2118 5.44865 73.0389 5.6102 72.952 5.68848C72.8447 5.785 72.6963 5.89644 72.534 6.01953L70.2899 7.71973L71.1063 10.415C71.1653 10.6103 71.2188 10.7885 71.2488 10.9297C71.2732 11.0441 71.3187 11.2765 71.2127 11.4971C71.0955 11.7406 70.8631 11.9082 70.5955 11.9443C70.3535 11.9768 70.1472 11.8633 70.0457 11.8047C69.9206 11.7325 69.7679 11.6254 69.6004 11.5088L67.2899 9.90137L64.9793 11.5088C64.8118 11.6254 64.6591 11.7325 64.534 11.8047C64.4326 11.8632 64.2256 11.9769 63.9832 11.9443C63.7158 11.9082 63.4842 11.7405 63.367 11.4971C63.261 11.2765 63.3056 11.0442 63.3299 10.9297C63.3599 10.7884 63.4144 10.6104 63.4734 10.415L64.2879 7.71973L62.0457 6.01953H62.0447C61.8824 5.89642 61.734 5.78499 61.6268 5.68848C61.5398 5.61016 61.367 5.44869 61.3231 5.20801C61.2746 4.94207 61.3639 4.66905 61.5594 4.48242C61.7363 4.31387 61.9704 4.28469 62.0867 4.27246C62.2303 4.25737 62.416 4.25416 62.6199 4.25L65.4344 4.19238L66.3592 1.5332C66.4261 1.3406 66.487 1.16505 66.5457 1.0332C66.5934 0.926207 66.6937 0.711773 66.909 0.595703V0.59668Z" fill="#FFAE00" fill-opacity="0.5" stroke="#FFAE00" stroke-linecap="round" stroke-linejoin="round"/>
</svg>
