<svg width="22" height="24" viewBox="0 0 22 24" fill="none" xmlns="http://www.w3.org/2000/svg">
<path d="M2.75 21.0146H19.25C20.0475 21.0146 20.7498 21.6877 20.75 22.5879V22.75H1.25V22.5879C1.25018 21.6877 1.95255 21.0146 2.75 21.0146ZM5.5 8.30859H16.5C17.2976 8.30859 18 8.98247 18 9.88281V14.1172C18 15.0176 17.2976 15.6914 16.5 15.6914H5.5C4.70245 15.6914 4 15.0176 4 14.1172V9.88281C4 8.98248 4.70246 8.30859 5.5 8.30859ZM8.25 9.33789C6.76939 9.33789 5.625 10.5612 5.625 12C5.625 13.4388 6.76939 14.6621 8.25 14.6621C9.73066 14.6621 10.875 13.4388 10.875 12C10.875 10.5612 9.73066 9.33789 8.25 9.33789ZM13.75 9.33789C12.2693 9.33789 11.125 10.5612 11.125 12C11.125 13.4388 12.2693 14.6621 13.75 14.6621C15.2307 14.6621 16.375 13.4388 16.375 12C16.375 10.5612 15.2307 9.33789 13.75 9.33789ZM11 1.25C11.4177 1.25 11.8123 1.60696 11.8125 2.11719C11.8125 2.62766 11.4178 2.98535 11 2.98535C10.5822 2.98535 10.1875 2.62766 10.1875 2.11719C10.1877 1.60696 10.5823 1.25 11 1.25Z" stroke="url(#paint0_linear_15_12)" stroke-width="2.5"/>
<defs>
<linearGradient id="paint0_linear_15_12" x1="11" y1="0" x2="11" y2="24" gradientUnits="userSpaceOnUse">
<stop stop-color="#F9B2FF"/>
<stop offset="1" stop-color="#EA00FF"/>
</linearGradient>
</defs>
</svg>
