<svg width="23" height="20" viewBox="0 0 23 20" fill="none" xmlns="http://www.w3.org/2000/svg">
<path fill-rule="evenodd" clip-rule="evenodd" d="M11.5 0C18.1274 0 23 4.97208 23 11.7222C23 14.1737 22.4113 16.5203 21.1 18.5148C20.7313 19.0757 20.034 19.226 19.4833 18.8504C18.9326 18.4748 19.1145 17.7157 19.4833 17.1548C20.532 15.5596 21.1 13.6856 21.1 11.7222C21.1 6.3221 16.8019 1.94444 11.5 1.94444C11.1623 1.94444 10.8287 1.9622 10.5 1.99685C5.668 2.50623 1.9 6.66605 1.9 11.7222C1.9 13.6856 2.46801 15.5596 3.51673 17.1548C3.88548 17.7157 4.06742 18.4748 3.51673 18.8504C2.96605 19.226 2.26875 19.0757 1.9 18.5148C0.588736 16.5203 0 14.1737 0 11.7222C0 4.97208 4.87258 0 11.5 0Z" fill="#FF0000"/>
<path fill-rule="evenodd" clip-rule="evenodd" d="M17.4304 10.2626L16.5984 11.3419L16.0304 12.0661C14.5179 13.9769 13.5469 15.0524 13.0208 15.3792C11.7817 16.1489 10.08 15.6504 9.21994 14.2659C8.35991 12.8813 8.6672 11.1349 9.90629 10.3653C10.4956 9.99924 12.174 9.54917 15.111 8.94731L16.4472 8.67987C17.2834 8.51603 17.9478 9.58564 17.4304 10.2626ZM15.5 10.5L14 11L12.8297 11.3419C11.9062 11.5744 11.1476 11.9104 10.9444 12.0366C10.5314 12.2931 10.429 12.8753 10.7157 13.3368C11.0023 13.7983 11.5696 13.9645 11.9826 13.7079C12.231 13.5536 13.1391 13.0429 14 12L15.5 10.5Z" fill="#FF0000"/>
<path d="M12.5 3V2C12.5 1.72386 12.2761 1.5 12 1.5H11C10.7238 1.5 10.5 1.72386 10.5 2V3C10.5 3.27614 10.7238 3.5 11 3.5H12C12.2761 3.5 12.5 3.27614 12.5 3Z" fill="#FF0000"/>
<path d="M2.97769 6.76308L3.77007 7.25347C4.00488 7.39879 4.07742 7.70695 3.9321 7.94176L3.40584 8.79209C3.26052 9.0269 2.95236 9.09945 2.71755 8.95413L1.92517 8.46373C1.69036 8.31841 1.61782 8.01025 1.76314 7.77544L2.28939 6.92511C2.43472 6.6903 2.74287 6.61776 2.97769 6.76308Z" fill="#FF0000"/>
<path d="M19.6258 6.76311L18.7625 7.29742C18.5276 7.44274 18.4551 7.7509 18.6004 7.98571L19.1267 8.83604C19.272 9.07085 19.5802 9.14339 19.815 8.99807L20.6783 8.46376C20.9131 8.31844 20.9857 8.01028 20.8403 7.77547L20.3141 6.92514C20.1688 6.69033 19.8606 6.61779 19.6258 6.76311Z" fill="#FF0000"/>
</svg>
