<svg width="24" height="20" viewBox="0 0 24 20" fill="none" xmlns="http://www.w3.org/2000/svg">
<path fill-rule="evenodd" clip-rule="evenodd" d="M12 0C18.6274 0 24 5.47208 24 12.2222C24 14.6737 23.2887 17.0203 21.9775 19.0148C21.6087 19.5757 20.8634 19.726 20.3127 19.3504C19.762 18.9748 19.6145 18.2157 19.9833 17.6548C21.032 16.0596 21.6 14.1856 21.6 12.2222C21.6 6.8221 17.3019 2.44444 12 2.44444C6.69807 2.44444 2.4 6.8221 2.4 12.2222C2.4 14.1856 2.96801 16.0596 4.01673 17.6548C4.38548 18.2157 4.23799 18.9748 3.6873 19.3504C3.13662 19.726 2.39127 19.5757 2.02253 19.0148C0.711264 17.0203 0 14.6737 0 12.2222C0 5.47208 5.37258 0 12 0Z" fill="#FF0000"/>
<path fill-rule="evenodd" clip-rule="evenodd" d="M19.5746 11.0226L18.4241 12.3283L17.6398 13.2046C15.5533 15.5176 14.2289 16.8241 13.5369 17.2301C11.9073 18.1863 9.82527 17.6643 8.88652 16.0643C7.94777 14.4644 8.50782 12.3922 10.1374 11.4361C10.9124 10.9814 13.0605 10.3852 16.8005 9.56109L18.5015 9.19368C19.5656 8.9679 20.2908 10.2039 19.5746 11.0226ZM15.5757 12.1396L14.3464 12.4345L13.4595 12.6602C12.2791 12.9703 11.5378 13.2106 11.2706 13.3674C10.7274 13.6861 10.5407 14.3768 10.8536 14.9102C11.1665 15.4435 11.8606 15.6175 12.4038 15.2988C12.7305 15.1071 13.512 14.3576 14.6952 13.0939L15.5757 12.1396Z" fill="#FF0000"/>
</svg>
